<svg xmlns="http://www.w3.org/2000/svg" xmlns:xlink="http://www.w3.org/1999/xlink" viewBox="0 0 304.69 236.82"><defs><style>.cls-1{fill:#7158e2;}.cls-2{fill:url(#linear-gradient);}.cls-3{fill:url(#linear-gradient-2);}</style><linearGradient id="linear-gradient" x1="40.98" y1="129.7" x2="246.61" y2="129.7" gradientUnits="userSpaceOnUse"><stop offset="0" stop-color="#dae3fe"/><stop offset="1" stop-color="#e9effd"/></linearGradient><linearGradient id="linear-gradient-2" x1="209" y1="57.92" x2="263.71" y2="57.92" gradientTransform="translate(40.16 -86.04) rotate(22.5)" xlink:href="#linear-gradient"/></defs><g id="Layer_2" data-name="Layer 2"><g id="Illustration"><rect class="cls-1" width="304.69" height="236.82" rx="25.43"/><path class="cls-2" d="M48.66,201.39H238.94a7.66,7.66,0,0,0,6.6-11.54L170.21,61.79a7.66,7.66,0,0,0-13.57.7l-36.37,79.7a7.66,7.66,0,0,1-12.15,2.47L93.41,131.17A7.66,7.66,0,0,0,82,132.45L42.37,189.36A7.66,7.66,0,0,0,48.66,201.39Z"/><circle class="cls-3" cx="236.36" cy="57.92" r="27.35" transform="translate(-4.17 94.86) rotate(-22.5)"/></g></g></svg>