<svg xmlns="http://www.w3.org/2000/svg" viewBox="0 0 412.03 146.83"><defs><style>.cls-1{fill:#7158e2;}</style></defs><g id="Layer_2" data-name="Layer 2"><g id="Layer_1-2" data-name="Layer 1"><path class="cls-1" d="M73.42,75.25l-.87-1.2a73.56,73.56,0,0,1-11-63.77A12.13,12.13,0,0,1,73.42,1.39h0a12.12,12.12,0,0,1,11.86,8.89,73.29,73.29,0,0,1,3,20.71,72.81,72.81,0,0,1-14,43.06Zm0-71.7a10,10,0,0,0-9.8,7.33,71.37,71.37,0,0,0,9.8,60.68A70.65,70.65,0,0,0,86.09,31a71.31,71.31,0,0,0-2.87-20.11A10,10,0,0,0,73.42,3.55Z"/><path class="cls-1" d="M73.42,77.62l-2-2.75A74.17,74.17,0,0,1,57.19,31a75.07,75.07,0,0,1,3-21.11,13.76,13.76,0,0,1,26.41,0,74.71,74.71,0,0,1,3,21.11A74.25,74.25,0,0,1,75.42,74.87Zm0-72.68A8.65,8.65,0,0,0,65,11.28a70,70,0,0,0,8.46,57.78A69.33,69.33,0,0,0,84.7,31a69.93,69.93,0,0,0-2.82-19.71A8.65,8.65,0,0,0,73.42,4.94Z"/><path class="cls-1" d="M73.42,145.44a12.14,12.14,0,0,1-11.87-8.88,73.58,73.58,0,0,1,11-63.78l.87-1.2.87,1.2a72.85,72.85,0,0,1,14,43.06,73.41,73.41,0,0,1-3,20.72A12.13,12.13,0,0,1,73.42,145.44Zm0-70.16A71.35,71.35,0,0,0,63.62,136a10.21,10.21,0,0,0,19.6,0,71.25,71.25,0,0,0,2.87-20.11A70.62,70.62,0,0,0,73.42,75.28Z"/><path class="cls-1" d="M73.42,146.83A13.5,13.5,0,0,1,60.21,137a75,75,0,0,1-3-21.11A74.2,74.2,0,0,1,71.42,72l2-2.75,2,2.75a74.25,74.25,0,0,1,14.22,43.88,74.66,74.66,0,0,1-3,21.11A13.48,13.48,0,0,1,73.42,146.83Zm0-69.06A70,70,0,0,0,65,135.56a8.82,8.82,0,0,0,16.92,0,70,70,0,0,0,2.82-19.72A69.33,69.33,0,0,0,73.42,77.77Z"/><path class="cls-1" d="M31,88.25a73.29,73.29,0,0,1-20.71-3,12.36,12.36,0,0,1,0-23.73,73.56,73.56,0,0,1,63.77,11l1.2.87-1.2.87A72.81,72.81,0,0,1,31,88.25Zm0-27.51a71.31,71.31,0,0,0-20.11,2.88,10.22,10.22,0,0,0,0,19.6A71.31,71.31,0,0,0,31,86.09,70.65,70.65,0,0,0,71.56,73.42,70.66,70.66,0,0,0,31,60.74Z"/><path class="cls-1" d="M31,89.64a74.71,74.71,0,0,1-21.11-3,13.76,13.76,0,0,1,0-26.41,75.07,75.07,0,0,1,21.11-3A74.17,74.17,0,0,1,74.87,71.42l2.75,2-2.75,2A74.25,74.25,0,0,1,31,89.64Zm0-27.51A69.58,69.58,0,0,0,11.28,65a8.81,8.81,0,0,0,0,16.92A69.93,69.93,0,0,0,31,84.7,69.33,69.33,0,0,0,69.06,73.42,69.34,69.34,0,0,0,31,62.13Z"/><path class="cls-1" d="M115.84,88.25a72.85,72.85,0,0,1-43.06-14l-1.2-.87,1.2-.87a73.58,73.58,0,0,1,63.78-11,12.37,12.37,0,0,1,0,23.73A73.41,73.41,0,0,1,115.84,88.25ZM75.28,73.42a70.62,70.62,0,0,0,40.56,12.67A71.25,71.25,0,0,0,136,83.22a10.21,10.21,0,0,0,0-19.6,71.35,71.35,0,0,0-60.67,9.8Z"/><path class="cls-1" d="M115.84,89.64A74.2,74.2,0,0,1,72,75.42l-2.76-2,2.75-2a74.2,74.2,0,0,1,43.88-14.23,75,75,0,0,1,21.11,3,13.76,13.76,0,0,1,0,26.41A74.66,74.66,0,0,1,115.84,89.64ZM77.77,73.42A69.33,69.33,0,0,0,115.84,84.7a70,70,0,0,0,19.72-2.82,8.82,8.82,0,0,0,0-16.92,69.93,69.93,0,0,0-57.79,8.46Z"/><path class="cls-1" d="M74.52,74.52l-1.47-.24A72.8,72.8,0,0,1,32.73,53.71,73.6,73.6,0,0,1,20.18,37,12.37,12.37,0,0,1,37,20.18,73.77,73.77,0,0,1,53.71,32.73,72.85,72.85,0,0,1,74.29,73.05ZM31,20.78a10.28,10.28,0,0,0-8.9,15.15A71.4,71.4,0,0,0,34.26,52.19,70.75,70.75,0,0,0,71.91,71.91,70.68,70.68,0,0,0,52.19,34.26,71.4,71.4,0,0,0,35.93,22.07,10.4,10.4,0,0,0,31,20.78Z"/><path class="cls-1" d="M76.2,76.19l-3.36-.53a74.22,74.22,0,0,1-41.09-21A74.79,74.79,0,0,1,19,37.63,13.76,13.76,0,0,1,37.63,19,74.79,74.79,0,0,1,54.7,31.75a74.19,74.19,0,0,1,21,41.08ZM31,22.17A8.75,8.75,0,0,0,24.8,24.8a8.66,8.66,0,0,0-1.5,10.46A69.87,69.87,0,0,0,35.24,51.2a69.34,69.34,0,0,0,34.9,18.94A69.34,69.34,0,0,0,51.2,35.24,69.87,69.87,0,0,0,35.26,23.3,8.79,8.79,0,0,0,31,22.17Z"/><path class="cls-1" d="M115.48,127.83a12.53,12.53,0,0,1-6-1.57,73.53,73.53,0,0,1-16.75-12.55h0A72.83,72.83,0,0,1,72.16,73.39l-.23-1.47,1.46.24a73.48,73.48,0,0,1,52.87,37.32,12.44,12.44,0,0,1-10.78,18.35ZM74.54,74.54a70.62,70.62,0,0,0,19.72,37.65h0a71.81,71.81,0,0,0,16.25,12.18,10.21,10.21,0,0,0,13.86-13.86,71.59,71.59,0,0,0-12.18-16.25A70.62,70.62,0,0,0,74.54,74.54Z"/><path class="cls-1" d="M115.48,129.22h0a14,14,0,0,1-6.67-1.74,74.95,74.95,0,0,1-38-53.87l-.53-3.36,3.36.53a74.88,74.88,0,0,1,53.87,38,13.51,13.51,0,0,1-2.34,16.33A13.65,13.65,0,0,1,115.48,129.22ZM76.3,76.3a69.34,69.34,0,0,0,18.94,34.9,70.09,70.09,0,0,0,15.94,11.94,8.81,8.81,0,0,0,12-12A69.94,69.94,0,0,0,76.3,76.3Z"/><path class="cls-1" d="M31,127.83a12.44,12.44,0,0,1-10.78-18.35A73.82,73.82,0,0,1,32.73,92.73h0A72.86,72.86,0,0,1,73.05,72.16l1.47-.23-.23,1.46a72.85,72.85,0,0,1-20.58,40.32A73.47,73.47,0,0,1,37,126.26,12.57,12.57,0,0,1,31,127.83ZM71.91,74.54A70.62,70.62,0,0,0,34.26,94.26h0a71.34,71.34,0,0,0-12.19,16.25,10.22,10.22,0,0,0,13.86,13.86,71.65,71.65,0,0,0,16.26-12.18A70.75,70.75,0,0,0,71.91,74.54Z"/><path class="cls-1" d="M31,129.22a13.61,13.61,0,0,1-9.65-4.08A13.5,13.5,0,0,1,19,108.81,75,75,0,0,1,31.75,91.75a74.17,74.17,0,0,1,41.09-21l3.36-.53-.54,3.36a74.25,74.25,0,0,1-21,41.09,75,75,0,0,1-17.07,12.78A14,14,0,0,1,31,129.22ZM70.14,76.3a69.34,69.34,0,0,0-34.9,18.94A70.09,70.09,0,0,0,23.3,111.18a8.81,8.81,0,0,0,12,12A69.87,69.87,0,0,0,51.2,111.2,69.34,69.34,0,0,0,70.14,76.3Z"/><path class="cls-1" d="M71.93,74.52l.23-1.47A72.86,72.86,0,0,1,92.73,32.73h0a73.82,73.82,0,0,1,16.75-12.55A12.37,12.37,0,0,1,126.26,37a73.47,73.47,0,0,1-12.55,16.74A72.85,72.85,0,0,1,73.39,74.29Zm43.54-53.74a10.43,10.43,0,0,0-5,1.29A71.34,71.34,0,0,0,94.26,34.26h0A70.62,70.62,0,0,0,74.54,71.91a70.75,70.75,0,0,0,37.65-19.72,71.65,71.65,0,0,0,12.18-16.26,10.27,10.27,0,0,0-8.9-15.15Z"/><path class="cls-1" d="M70.25,76.2l.53-3.36a74.2,74.2,0,0,1,21-41.09A75,75,0,0,1,108.81,19a13.76,13.76,0,0,1,18.67,18.67A74.51,74.51,0,0,1,114.69,54.7a74.19,74.19,0,0,1-41.08,21Zm45.22-54a8.85,8.85,0,0,0-4.29,1.13A70.09,70.09,0,0,0,95.24,35.24,69.34,69.34,0,0,0,76.3,70.14,69.34,69.34,0,0,0,111.2,51.2a69.87,69.87,0,0,0,11.94-15.94,8.63,8.63,0,0,0-1.5-10.46A8.73,8.73,0,0,0,115.47,22.17Z"/><path class="cls-1" d="M56.56,76.5a73.11,73.11,0,0,1-28-5.61h0a73.5,73.5,0,0,1-18-10.67,12.37,12.37,0,0,1,9.08-21.93,73.5,73.5,0,0,1,20.27,5.19A72.91,72.91,0,0,1,74.34,72.85l.77,1.27-1.44.34A73.22,73.22,0,0,1,56.56,76.5ZM18.22,40.37a10.22,10.22,0,0,0-6.33,18.17A71.23,71.23,0,0,0,29.37,68.89h0A70.71,70.71,0,0,0,71.7,72.71,70.66,70.66,0,0,0,39.07,45.47a71.45,71.45,0,0,0-19.68-5A11.46,11.46,0,0,0,18.22,40.37Z"/><path class="cls-1" d="M56.56,77.89h0A74.17,74.17,0,0,1,28,72.17,74.56,74.56,0,0,1,9.66,61.3,13.76,13.76,0,0,1,19.77,36.91a74.88,74.88,0,0,1,20.66,5.28A74.15,74.15,0,0,1,75.52,72.12L77.3,75,74,75.82A74.5,74.5,0,0,1,56.56,77.89ZM18.22,41.77a8.82,8.82,0,0,0-5.45,15.69A70.17,70.17,0,0,0,29.9,67.61a69.36,69.36,0,0,0,39.49,4.14,69.35,69.35,0,0,0-30.85-25,69.86,69.86,0,0,0-19.3-4.94A8.71,8.71,0,0,0,18.22,41.77Z"/><path class="cls-1" d="M128.63,108.62a11.37,11.37,0,0,1-1.42-.08,73.48,73.48,0,0,1-20.27-5.18A72.81,72.81,0,0,1,72.5,74l-.78-1.26,1.45-.35A72.75,72.75,0,0,1,118.29,76a73.5,73.5,0,0,1,18,10.67,12.37,12.37,0,0,1-7.66,22ZM75.14,74.13a70.59,70.59,0,0,0,32.62,27.24h0a71.43,71.43,0,0,0,19.68,5,10.21,10.21,0,0,0,7.5-18.1,71.35,71.35,0,0,0-59.8-14.17Z"/><path class="cls-1" d="M128.63,110a13.77,13.77,0,0,1-1.57-.09,75.24,75.24,0,0,1-20.66-5.28A74.23,74.23,0,0,1,71.31,74.71l-1.78-2.9,3.31-.8a74.23,74.23,0,0,1,46,3.65,75,75,0,0,1,18.35,10.87A13.77,13.77,0,0,1,128.63,110ZM77.44,75.08A70,70,0,0,0,127.59,105a8.82,8.82,0,0,0,6.47-15.64,70,70,0,0,0-56.62-14.3Z"/><path class="cls-1" d="M50.71,141a12.8,12.8,0,0,1-4.86-1,12.14,12.14,0,0,1-7.56-12.75,73.5,73.5,0,0,1,5.19-20.27h0A72.75,72.75,0,0,1,72.86,72.5l1.26-.77.35,1.44a72.83,72.83,0,0,1-3.59,45.12,73.15,73.15,0,0,1-10.66,18A12.14,12.14,0,0,1,50.71,141Zm-5.24-33.19h0a71.63,71.63,0,0,0-5,19.68,10.21,10.21,0,0,0,18.11,7.5,71.3,71.3,0,0,0,10.35-17.47,70.72,70.72,0,0,0,3.82-42.33A70.64,70.64,0,0,0,45.47,107.76Z"/><path class="cls-1" d="M50.71,142.34a14.1,14.1,0,0,1-5.39-1.09,13.52,13.52,0,0,1-8.42-14.19A75,75,0,0,1,72.13,71.31L75,69.53l.79,3.31a74.23,74.23,0,0,1-3.65,46A74.69,74.69,0,0,1,61.3,137.17,13.62,13.62,0,0,1,50.71,142.34Zm-4-34h0a69.88,69.88,0,0,0-4.94,19.29,8.82,8.82,0,0,0,15.63,6.48A69.6,69.6,0,0,0,67.6,116.93a69.34,69.34,0,0,0,4.15-39.49A69.33,69.33,0,0,0,46.76,108.3Z"/><path class="cls-1" d="M72.72,75.11l-.35-1.44A72.75,72.75,0,0,1,76,28.55h0a73.56,73.56,0,0,1,10.67-18,12.37,12.37,0,0,1,21.92,9.09,73.15,73.15,0,0,1-5.19,20.27A72.82,72.82,0,0,1,74,74.34Zm5.22-45.74A70.63,70.63,0,0,0,74.13,71.7a70.7,70.7,0,0,0,27.23-32.63,71.1,71.1,0,0,0,5-19.68,10.22,10.22,0,0,0-18.11-7.5A71.55,71.55,0,0,0,77.94,29.37Z"/><path class="cls-1" d="M71.81,77.31,71,74a74.26,74.26,0,0,1,3.65-46A75.13,75.13,0,0,1,85.53,9.67a13.76,13.76,0,0,1,24.4,10.1,74.72,74.72,0,0,1-5.29,20.66,74.22,74.22,0,0,1-29.93,35.1ZM79.23,29.9a69.39,69.39,0,0,0-4.15,39.5,69.46,69.46,0,0,0,25-30.86A70.21,70.21,0,0,0,105,19.25a8.82,8.82,0,0,0-15.63-6.48A69.85,69.85,0,0,0,79.23,29.9Z"/><path class="cls-1" d="M18.2,108.62a12.37,12.37,0,0,1-7.66-22A73.69,73.69,0,0,1,28.54,76a72.85,72.85,0,0,1,45.13-3.58l1.44.35L74.33,74a72.81,72.81,0,0,1-34.44,29.38l-.41-1,.41,1a73.85,73.85,0,0,1-20.27,5.19A13.63,13.63,0,0,1,18.2,108.62ZM56.57,72.49A71.61,71.61,0,0,0,11.89,88.3a10.21,10.21,0,0,0,7.5,18.1,71.08,71.08,0,0,0,19.68-5A70.66,70.66,0,0,0,71.7,74.13,71.23,71.23,0,0,0,56.57,72.49Z"/><path class="cls-1" d="M18.2,110A13.77,13.77,0,0,1,9.67,85.53,74.9,74.9,0,0,1,74,71l3.31.8-1.78,2.9A74.06,74.06,0,0,1,41.71,104.1h0l-2.58,1.07h0a75,75,0,0,1-19.37,4.76A13.77,13.77,0,0,1,18.2,110ZM56.57,73.89a70.19,70.19,0,0,0-43.8,15.49A8.82,8.82,0,0,0,19.24,105a69.86,69.86,0,0,0,19.3-4.94,69.37,69.37,0,0,0,30.85-25A70.06,70.06,0,0,0,56.57,73.89Z"/><path class="cls-1" d="M90.27,76.5a73.81,73.81,0,0,1-17.11-2l-1.44-.35.78-1.27a73.56,73.56,0,0,1,54.71-34.56,12.37,12.37,0,0,1,9.08,21.93,73.5,73.5,0,0,1-18,10.67A73.11,73.11,0,0,1,90.27,76.5ZM75.13,72.71a70.71,70.71,0,0,0,42.33-3.81h0a71.39,71.39,0,0,0,17.48-10.36,10.21,10.21,0,0,0-7.5-18.1A71.34,71.34,0,0,0,75.13,72.71Z"/><path class="cls-1" d="M90.27,77.89a74.56,74.56,0,0,1-17.43-2.07L69.53,75l1.78-2.9a74.85,74.85,0,0,1,55.75-35.22A13.76,13.76,0,0,1,137.17,61.3a74.38,74.38,0,0,1-18.35,10.87A74.17,74.17,0,0,1,90.27,77.89ZM77.44,71.75a69.35,69.35,0,0,0,39.49-4.14,70.17,70.17,0,0,0,17.13-10.15,8.82,8.82,0,0,0-6.47-15.64A70,70,0,0,0,77.44,71.75Z"/><path class="cls-1" d="M96.12,141a12.16,12.16,0,0,1-9.5-4.65,73.75,73.75,0,0,1-10.67-18,72.75,72.75,0,0,1-3.58-45.12l.35-1.45L74,72.5a73.56,73.56,0,0,1,34.56,54.71A12.14,12.14,0,0,1,101,140,12.76,12.76,0,0,1,96.12,141Zm-22-65.81a70.64,70.64,0,0,0,3.81,42.33h0a71.3,71.3,0,0,0,10.35,17.47,10.21,10.21,0,0,0,18.11-7.5,71.44,71.44,0,0,0-32.27-52.3Z"/><path class="cls-1" d="M96.12,142.34a13.59,13.59,0,0,1-10.59-5.17,75.13,75.13,0,0,1-10.87-18.34,74.26,74.26,0,0,1-3.65-46l.8-3.31,2.9,1.78a74.22,74.22,0,0,1,29.93,35.1,74.74,74.74,0,0,1,5.29,20.65,13.5,13.5,0,0,1-8.42,14.19A14.1,14.1,0,0,1,96.12,142.34Zm-21-64.9a70.06,70.06,0,0,0,14.3,56.63A8.82,8.82,0,0,0,105,127.59a70.21,70.21,0,0,0-4.93-19.29A69.46,69.46,0,0,0,75.08,77.44Z"/><path class="cls-1" d="M74.12,75.11l-1.27-.77A72.79,72.79,0,0,1,43.48,39.9a73.15,73.15,0,0,1-5.19-20.27,12.37,12.37,0,0,1,21.93-9.09,73.4,73.4,0,0,1,10.66,18,72.82,72.82,0,0,1,3.59,45.12Zm-23.43-67a10.41,10.41,0,0,0-4,.81A10,10,0,0,0,40.43,19.4a71.48,71.48,0,0,0,5,19.67A70.62,70.62,0,0,0,72.71,71.7a70.71,70.71,0,0,0-3.82-42.33A71.3,71.3,0,0,0,58.54,11.9,10,10,0,0,0,50.69,8.06Z"/><path class="cls-1" d="M75,77.3l-2.9-1.77a74.19,74.19,0,0,1-29.94-35.1A74.72,74.72,0,0,1,36.9,19.77,13.76,13.76,0,0,1,61.3,9.67,74.82,74.82,0,0,1,72.17,28a74.23,74.23,0,0,1,3.65,46ZM50.69,9.45a9.1,9.1,0,0,0-3.48.71,8.65,8.65,0,0,0-5.39,9.09,69.88,69.88,0,0,0,4.94,19.29,69.23,69.23,0,0,0,25,30.85A69.36,69.36,0,0,0,67.6,29.9,69.73,69.73,0,0,0,57.45,12.77,8.58,8.58,0,0,0,50.69,9.45Z"/><path class="cls-1" d="M175.2,46.82,187.76,88h.46l12.56-41.13H216L197,103H179L160,46.82Z"/><path class="cls-1" d="M223.09,103.68a17.76,17.76,0,0,1-7.14-1.35A11,11,0,0,1,211,98.22a12.44,12.44,0,0,1-1.8-6.93,12.8,12.8,0,0,1,1.24-5.92,10.49,10.49,0,0,1,3.4-3.92,16,16,0,0,1,5-2.29,33,33,0,0,1,6-1c2.39-.22,4.32-.46,5.78-.7a8.33,8.33,0,0,0,3.2-1.07,2.3,2.3,0,0,0,1-2v-.14A3.93,3.93,0,0,0,233.42,71a6.12,6.12,0,0,0-3.92-1.15A7.17,7.17,0,0,0,225.23,71a5.07,5.07,0,0,0-2.06,3.18l-12.36-.44a14.64,14.64,0,0,1,2.83-6.87A15.36,15.36,0,0,1,220,62.05a24.24,24.24,0,0,1,9.66-1.74,27.62,27.62,0,0,1,7.43.95A18.66,18.66,0,0,1,243,64a12.19,12.19,0,0,1,5.3,10.35V103H235.64V97.1h-.32a12,12,0,0,1-2.87,3.62,11.52,11.52,0,0,1-4.08,2.22A17.36,17.36,0,0,1,223.09,103.68Zm4.14-8.77a8.48,8.48,0,0,0,3.9-.88,7.21,7.21,0,0,0,2.79-2.42A6.35,6.35,0,0,0,235,88V84a8.94,8.94,0,0,1-1.39.55c-.54.16-1.12.32-1.76.46s-1.3.28-2,.39l-1.94.3a11.9,11.9,0,0,0-3.23.93,5.06,5.06,0,0,0-2,1.63,4,4,0,0,0-.7,2.37,3.69,3.69,0,0,0,1.49,3.18A6.2,6.2,0,0,0,227.23,94.91Z"/><path class="cls-1" d="M277.11,60.86v9.87H250.54V60.86Zm-21-10.09h13.4v39a4.21,4.21,0,0,0,.4,2,2.24,2.24,0,0,0,1.16,1.07,4.89,4.89,0,0,0,1.84.31,9.5,9.5,0,0,0,1.63-.15c.58-.1,1-.19,1.3-.26l2,9.68c-.64.18-1.54.41-2.7.68a22,22,0,0,1-4.15.52,19.29,19.29,0,0,1-8.07-1.11,10.32,10.32,0,0,1-5.13-4.15,12.79,12.79,0,0,1-1.71-7.1Z"/><path class="cls-1" d="M280.87,103V60.86h13v7.68h.44a11.46,11.46,0,0,1,3.76-6.21,9.52,9.52,0,0,1,6.06-2,16,16,0,0,1,1.92.12,11,11,0,0,1,1.83.37V72.43a12.82,12.82,0,0,0-2.51-.52,22.18,22.18,0,0,0-2.75-.19,8.74,8.74,0,0,0-4.29,1,7.68,7.68,0,0,0-3,2.94,8.67,8.67,0,0,0-1.08,4.4V103Z"/><path class="cls-1" d="M317,56a6.89,6.89,0,0,1-4.85-1.87,6,6,0,0,1-2-4.54,5.93,5.93,0,0,1,2-4.51,7.22,7.22,0,0,1,9.72,0,5.94,5.94,0,0,1,2,4.51,6,6,0,0,1-2,4.54A6.89,6.89,0,0,1,317,56Zm-6.71,47V60.86h13.4V103Z"/><path class="cls-1" d="M342.52,79v24H329.11V60.86h12.75v7.73h.47a11.89,11.89,0,0,1,4.77-6.07,14.34,14.34,0,0,1,8-2.21,14.66,14.66,0,0,1,7.72,2,13.66,13.66,0,0,1,5.1,5.54,17.73,17.73,0,0,1,1.79,8.29V103h-13.4V78.76a7.82,7.82,0,0,0-1.77-5.48,6.38,6.38,0,0,0-5-2,7.34,7.34,0,0,0-3.71.91,6.25,6.25,0,0,0-2.47,2.62A9.25,9.25,0,0,0,342.52,79Z"/><path class="cls-1" d="M386.86,103.68a17.76,17.76,0,0,1-7.14-1.35,11,11,0,0,1-4.91-4.11,12.44,12.44,0,0,1-1.8-6.93,12.93,12.93,0,0,1,1.24-5.92,10.49,10.49,0,0,1,3.4-3.92,16,16,0,0,1,5-2.29,33,33,0,0,1,6-1c2.39-.22,4.32-.46,5.78-.7a8.27,8.27,0,0,0,3.2-1.07,2.3,2.3,0,0,0,1-2v-.14A4,4,0,0,0,397.2,71a6.15,6.15,0,0,0-3.93-1.15A7.19,7.19,0,0,0,389,71a5.07,5.07,0,0,0-2.06,3.18l-12.36-.44a14.64,14.64,0,0,1,2.83-6.87,15.36,15.36,0,0,1,6.31-4.77,24.24,24.24,0,0,1,9.66-1.74,27.62,27.62,0,0,1,7.43.95A18.82,18.82,0,0,1,406.74,64a12.6,12.6,0,0,1,3.9,4.4A12.41,12.41,0,0,1,412,74.35V103H399.42V97.1h-.33a12,12,0,0,1-2.87,3.62,11.52,11.52,0,0,1-4.08,2.22A17.36,17.36,0,0,1,386.86,103.68ZM391,94.91a8.52,8.52,0,0,0,3.91-.88,7.18,7.18,0,0,0,2.78-2.42,6.35,6.35,0,0,0,1-3.61V84a8.42,8.42,0,0,1-1.38.55c-.54.16-1.13.32-1.77.46s-1.3.28-2,.39l-1.94.3a11.82,11.82,0,0,0-3.22.93,5,5,0,0,0-2,1.63,4,4,0,0,0-.7,2.37,3.71,3.71,0,0,0,1.49,3.18A6.2,6.2,0,0,0,391,94.91Z"/></g></g></svg>